# xmcd CD database file
#
# Track frame offsets:
#	182
#	17667
#	35412
#	64367
#	80150
#	94745
#	117477
#	139635
#	156647
#	176375
#	192157
#	210832
#	226030
#	245072
#	259222
#
# Disc length: 3668 seconds
#
# Revision: 4
# Processed by: cddbd v1.5.2PL0 Copyright (c) Steve Scherf et al.
# Submitted via: CDex 1.51
#
DISCID=ce0e520f
DTITLE=Oscar Benton - The BEST of
DYEAR=1993
DGENRE=Blues
TTITLE0=Bensonhurst blues (From the movie -Pour la peau d'un flic-)
TTITLE1=Busted
TTITLE2=St Louis blues
TTITLE3=I believe in love
TTITLE4=Basin street blues
TTITLE5=Helpless
TTITLE6=If you go away (Ne me quitte pas)
TTITLE7=It ain't nobody's business
TTITLE8=I feel so good
TTITLE9=Not the same dreams anymore
TTITLE10=How can I just start again
TTITLE11=I can't leave you
TTITLE12=Prisoner of love
TTITLE13=My petite fleur
TTITLE14=The day I got rid of the blues
EXTD=YEAR: 1993
EXTT0=
EXTT1=
EXTT2=
EXTT3=
EXTT4=
EXTT5=
EXTT6=
EXTT7=
EXTT8=
EXTT9=
EXTT10=
EXTT11=
EXTT12=
EXTT13=
EXTT14=
PLAYORDER=
